# AST/ASF file generated using VICON BodyLanguage
# -----------------------------------------------
:version 1.10
:name VICON
:units
  mass 1.0
  length 0.45
  angle deg
:documentation
   .ast/.asf automatically generated from VICON data using
   VICON BodyBuilder and BodyLanguage model FoxedUp or BRILLIANT.MOD
:root
   order TX TY TZ RX RY RZ
   axis XYZ
   position 0 0 0  
   orientation 0 0 0 
:bonedata
  begin
     id 1 
     name lhipjoint
     direction 0.716248 -0.617586 0.324924 
     length 2.63557 
     axis 0 0 0  XYZ
  end
  begin
     id 2 
     name lfemur
     direction 0.34202 -0.939693 0  
     length 7.01235  
     axis 0 0 20  XYZ
    dof rx ry rz
    limits (-160.0 20.0)
           (-70.0 70.0)
           (-60.0 70.0)
  end
  begin
     id 3 
     name ltibia
     direction 0.34202 -0.939693 0   
     length 8.14348   
     axis 0 0 20   XYZ
    dof rx
    limits (-10.0 170.0)
  end
  begin
     id 4 
     name lfoot
     direction 0.0982064 -0.26982 0.95789   
     length 1.99077   
     axis -90 7.62852e-016 20   XYZ
    dof rx rz
    limits (-45.0 90.0)
           (-70.0 20.0)
  end
  begin
     id 5 
     name ltoes
     direction 1.53511e-011 -4.21891e-011 1   
     length 0.99735   
     axis -90 7.62852e-016 20   XYZ
    dof rx
    limits (-90.0 20.0)
  end
  begin
     id 6 
     name rhipjoint
     direction -0.687828 -0.642391 0.337975   
     length 2.5338  
     axis 0 0 0  XYZ 
  end
  begin
     id 7 
     name rfemur
     direction -0.34202 -0.939693 0   
     length 6.90199   
     axis 0 0 -20   XYZ
    dof rx ry rz
    limits (-160.0 20.0)
           (-70.0 70.0)
           (-70.0 60.0)
  end
  begin
     id 8 
     name rtibia
     direction -0.34202 -0.939693 0   
     length 8.07725   
     axis 0 0 -20   XYZ
    dof rx
    limits (-10.0 170.0)
 end
 begin
     id 9 
     name rfoot
     direction -0.0912384 -0.250675 0.963762   
     length 2.11621  
     axis -90 -7.62852e-016 -20   XYZ
    dof rx rz
    limits (-45.0 90.0)
           (-20.0 70.0)
  end
  begin
     id 10 
     name rtoes
     direction -1.5359e-011 -4.21894e-011 1   
     length 1.06031   
     axis -90 -7.62852e-016 -20   XYZ
    dof rx
    limits (-90.0 20.0)
  end
  begin
     id 11 
     name lowerback
     direction -0.0403572 0.987953 -0.149396   
     length 2.05637   
     axis 0 0 0   XYZ
    dof rx ry rz
    limits (-20.0 45.0)
           (-30.0 30.0)
           (-30.0 30.0)
  end
  begin
     id 12 
     name upperback
     direction -0.00512151 0.997598 0.0690792   
     length 2.01086   
     axis 0 0 0   XYZ
    dof rx ry rz
    limits (-20.0 45.0)
           (-30.0 30.0)
           (-30.0 30.0)
  end
  begin
     id 13 
     name thorax
     direction 0.0136133 0.989392 0.14463   
     length 2.09035   
     axis 0 0 0   XYZ
    dof rx ry rz
    limits (-20.0 45.0)
           (-30.0 30.0)
           (-30.0 30.0)
  end
  begin
     id 14 
     name lowerneck
     direction 0.0250714 0.992811 0.11704   
     length 1.70806   
     axis 0 0 0   XYZ
    dof rx ry rz
    limits (-20.0 45.0)
           (-30.0 30.0)
           (-30.0 30.0)
  end
  begin
     id 15 
     name upperneck
     direction -0.0519205 0.998394 -0.0226787   
     length 1.6689   
     axis 0 0 0   XYZ
    dof rx ry rz
    limits (-20.0 45.0)
           (-30.0 30.0)
           (-30.0 30.0)
  end
  begin
     id 16
     name head
     direction -0.0201693 0.999547 -0.0223192  
     length 1.83412  
     axis 0 0 0   XYZ
    dof rx ry rz
    limits (-20.0 45.0)
           (-30.0 30.0)
           (-30.0 30.0)
  end
  begin
     id 17 
     name lclavicle
     direction 0.89585 0.444077 -0.0157448  
     length 3.39587  
     axis 0 0 0   XYZ
    dof ry rz
    limits (-20.0 10.0)
           (0.0 20.0)
  end
  begin
     id 18 
     name lhumerus
     direction 1 -4.48956e-011 1.99132e-028   
     length 5.79199   
     axis 180 -30 -90   XYZ
    dof rx ry rz
    limits (-60.0 90.0)
           (-90.0 90.0)
           (-90.0 90.0)
  end
  begin
     id 19
     name lradius
     direction 1 -4.48974e-011 8.72912e-028   
     length 3.49908   
     axis 180 -30 -90   XYZ
    dof rx
    limits (-10.0 170.0)
  end
  begin
     id 20
     name lwrist
     direction 1 -4.48994e-011 4.76442e-027   
     length 1.74954   
     axis -3.27502e-015 90 90   XYZ
    dof ry
    limits (-180.0 0.0)
 end
  begin
     id 21 
     name lhand
     direction 1 -4.48945e-011 9.531e-027   
     length 0.593861   
     axis -6.08098e-015 90 90   XYZ
    dof rx rz
    limits (-90.0 90.0)
           (-45.0 45.0)
  end
  begin
     id 22 
     name lfingers
     direction 1 -4.48945e-011 1.9062e-026   
     length 0.478786   
     axis -1.21619e-014 90 90   XYZ
    dof rx
    limits (0.0 90.0)
  end
  begin
     id 23
     name lthumb
     direction 0.707107 -6.34904e-011 0.707107   
     length 0.687444   
     axis -90 45 -9.86923e-015   XYZ
    dof rx rz
    limits (-45.0 45.0)
           (-45.0 45.0)
  end
  begin
     id 24 
     name rclavicle
     direction -0.940466 0.338394 0.0318182   
     length 3.51226  
     axis 0 0 0   XYZ 
    dof ry rz
    limits (-10.0 20.0)
           (-20.0 0.0)
  end
  begin
     id 25 
     name rhumerus
     direction -1 -4.48976e-011 2.0905e-027  
     length 5.73799   
     axis 180 30 90   XYZ
    dof rx ry rz
    limits (-90.0 60.0)
           (-90.0 90.0)
           (-90.0 90.0)
  end
  begin
     id 26 
     name rradius
     direction -1 -4.48968e-011 -9.39692e-029   
     length 3.57916   
     axis 180 30 90   XYZ
    dof rx
    limits (-10.0 170.0)
  end
  begin
     id 27 
     name rwrist
     direction -1 -4.48959e-011 4.7652e-027   
     length 1.78958   
     axis -3.27502e-015 -90 -90   XYZ
    dof ry
    limits (-180.0 0.0)
  end
  begin
     id 28
     name rhand
     direction -1 -4.49042e-011 9.5267e-027   
     length 0.615577   
     axis -6.08098e-015 -90 -90   XYZ
    dof rx rz
    limits (-90.0 90.0)
           (-45.0 45.0)
  end
  begin
     id 29
     name rfingers
     direction -1 -4.48935e-011 1.90629e-026   
     length 0.496294   
     axis -1.21619e-014 -90 -90   XYZ
    dof rx
    limits (0.0 90.0)
  end
  begin
     id 30
     name rthumb
     direction -0.707107 -6.34977e-011 0.707107   
     length 0.712582   
     axis -90 -45 9.86923e-015   XYZ
    dof rx rz
    limits (-45.0 45.0)
           (-45.0 45.0)
  end
:hierarchy
  begin
    root lhipjoint rhipjoint lowerback
    lhipjoint lfemur
    lfemur ltibia
    ltibia lfoot
    lfoot ltoes
    rhipjoint rfemur
    rfemur rtibia
    rtibia rfoot
    rfoot rtoes
    lowerback upperback
    upperback thorax
    thorax lowerneck lclavicle rclavicle
    lowerneck upperneck
    upperneck head
    lclavicle lhumerus
    lhumerus lradius
    lradius lwrist
    lwrist lhand lthumb
    lhand lfingers
    rclavicle rhumerus
    rhumerus rradius
    rradius rwrist
    rwrist rhand rthumb
    rhand rfingers
  end

#!OML:ASF H:\Terrain\Patient Classification 1\PaulMetrics\March17Take5\PaulMetrics.ASF
:FULLY-SPECIFIED
:DEGREES
2218
root 8.19128 17.0054 -18.0609 -6.90623 -73.9093 -347.447
lowerback 1.24738 0.602916 -4.82883
upperback -6.01095 0.322336 -2.10703
thorax -7.00116 0.311973 0.479747
lowerneck -5.9561 2.09855 -0.349499
upperneck 1.67426 2.77887 1.15759
head 1.50102 1.40679 0.503923
rclavicle -8.00108e-015 -2.50469e-014
rhumerus 18.077 19.4412 -36.7486
rradius 86.8514
rwrist -85.3903
rhand -25.748 -54.3313
rfingers 7.12502
rthumb 0.789167 275.69
lclavicle -8.00108e-015 -2.50469e-014
lhumerus 24.788 -9.34914 46.5059
lradius 76.5912
lwrist 89.9051
lhand -39.6244 -19.2041
lfingers 7.12502
lthumb -12.6057 10.3956
rfemur -11.4275 12.8049 12.7611
rtibia 30.1093
rfoot -25.7321 -26.3698
rtoes -1.51849
lfemur -17.9665 -6.24564 -13.5398
ltibia 32.9259
lfoot -19.1112 12.8328
ltoes -13.2043
2219
root 8.18402 17.0056 -18.0571 -5.41378 -73.9264 -348.926
lowerback 1.1498 0.519575 -4.44655
upperback -6.21601 0.240261 -1.85249
thorax -7.15588 0.262235 0.537475
lowerneck -5.15334 2.18098 -0.684963
upperneck 1.48231 2.90989 1.28998
head 1.29133 1.47095 0.5903
rclavicle 8.29926e-015 1.43125e-014
rhumerus 18.5898 19.5077 -35.8725
rradius 86.8777
rwrist -85.5345
rhand -25.7579 -54.2056
rfingers 7.12502
rthumb 0.779531 275.816
lclavicle 8.29926e-015 1.43125e-014
lhumerus 24.7592 -9.1491 46.3305
lradius 76.5641
lwrist 90.1397
lhand -39.6523 -19.5947
lfingers 7.12502
lthumb -12.6326 10.0033
rfemur -11.4126 12.8143 13.2345
rtibia 30.0262
rfoot -25.7758 -26.5071
rtoes -1.38986
lfemur -18.0233 -6.66079 -13.0804
ltibia 32.9367
lfoot -19.2978 13.12
ltoes -12.6462
2220
root 8.17696 17.0092 -18.0608 -3.96153 -73.9448 -350.382
lowerback 1.0645 0.681352 -4.01502
upperback -6.15877 0.484474 -1.91953
thorax -7.04606 0.354744 0.210612
lowerneck -5.46795 2.02106 -0.039546
upperneck 1.64339 2.66157 0.974918
head 1.41228 1.34609 0.384331
rclavicle 9.0447e-015 1.43125e-014
rhumerus 18.6144 18.6007 -35.356
rradius 86.7693
rwrist -85.4752
rhand -25.8784 -54.1619
rfingers 7.12502
rthumb 0.663202 275.859
lclavicle 9.0447e-015 1.43125e-014
lhumerus 25.8513 -9.21993 45.8836
lradius 76.5183
lwrist 90.2803
lhand -39.7444 -19.2232
lfingers 7.12502
lthumb -12.7213 10.3693
rfemur -11.3185 13.2719 13.7367
rtibia 29.8178
rfoot -26.2606 -26.7937
rtoes -0.0938327
lfemur -18.1741 -6.62829 -12.5979
ltibia 33.121
lfoot -19.5203 13.0257
ltoes -11.9878
2221
root 8.1661 16.9951 -18.0628 -4.13525 -73.9516 -350.144
lowerback 1.04459 0.632824 -4.32948
upperback -5.98628 0.42671 -1.78598
thorax -6.85361 0.34644 0.532154
lowerneck -6.54157 2.09329 0.181316
upperneck 2.05422 2.74632 0.605841
head 1.74288 1.38372 0.253675
rclavicle 2.88238e-015 -7.15625e-015
rhumerus 19.5941 17.9635 -34.792
rradius 86.4659
rwrist -85.102
rhand -26.4305 -54.3366
rfingers 7.12502
rthumb 0.129907 275.684
lclavicle 2.88238e-015 -7.15625e-015
lhumerus 26.5117 -8.52682 45.5831
lradius 76.5452
lwrist 90.1316
lhand -40.0487 -18.4287
lfingers 7.12502
lthumb -13.0147 11.1453
rfemur -11.3499 13.3708 13.741
rtibia 29.5544
rfoot -24.4779 -28.4368
rtoes -7.17692
lfemur -18.3705 -6.56355 -12.6684
ltibia 33.3706
lfoot -19.4881 13.2146
ltoes -13.1605
2222
root 8.16268 16.9706 -18.0577 -4.27202 -73.9419 -350.07
lowerback 1.19077 0.466622 -4.51415
upperback -5.9202 0.209329 -1.53048
thorax -6.86156 0.259173 0.916925
lowerneck -6.83811 2.32368 0.135277
upperneck 2.118 3.06714 0.304261
head 1.82007 1.53554 0.183177
rclavicle -1.1281e-014 2.82274e-014
rhumerus 20.8204 17.8255 -34.0985
rradius 86.1855
rwrist -84.7972
rhand -27.2321 -54.1745
rfingers 7.12502
rthumb -0.644269 275.847
lclavicle -1.1281e-014 2.82274e-014
lhumerus 26.595 -7.77511 45.2848
lradius 76.661
lwrist 89.98
lhand -40.3397 -18.3039
lfingers 7.12502
lthumb -13.2952 11.252
rfemur -11.2952 13.0871 13.8153
rtibia 29.3772
rfoot -21.6071 -30.1759
rtoes -16.9689
lfemur -18.3907 -6.59431 -12.7073
ltibia 33.5235
lfoot -19.5806 13.0543
ltoes -11.8563
2223
root 8.16362 16.9774 -18.0524 -3.71452 -73.9274 -350.715
lowerback 1.35476 0.288481 -4.32903
upperback -5.87524 -0.00803227 -1.28173
thorax -6.89485 0.151957 1.0889
lowerneck -6.74093 2.55986 0.243531
upperneck 1.84483 3.38588 -0.068582
head 1.72201 1.6855 0.0556068
rclavicle -2.75068e-014 9.54166e-015
rhumerus 21.9766 17.758 -33.2171
rradius 86.0718
rwrist -84.8113
rhand -27.598 -53.956
rfingers 7.12502
rthumb -0.997636 276.067
lclavicle -2.75068e-014 9.54166e-015
lhumerus 26.6507 -7.0358 45.006
lradius 76.6755
lwrist 89.9055
lhand -40.3162 -18.7389
lfingers 7.12502
lthumb -13.2726 10.8185
rfemur -10.9802 13.2838 13.9995
rtibia 29.2684
rfoot -23.5542 -29.1246
rtoes -10.9468
lfemur -18.3044 -6.63902 -12.5204
ltibia 33.5708
lfoot -19.8632 12.6503
ltoes -9.34864
2224
root 8.15919 16.9958 -18.0489 -3.6059 -73.8927 -350.766
lowerback 1.37962 0.140252 -4.34131
upperback -5.88198 -0.195629 -1.08615
thorax -6.90606 0.0672911 1.31388
lowerneck -6.83681 2.6734 -0.270488
upperneck 1.76479 3.56888 0.217003
head 1.69794 1.77922 0.238167
rclavicle 3.25013e-014 4.96962e-015
rhumerus 22.9796 17.6512 -32.2461
rradius 86.0244
rwrist -84.9833
rhand -27.9159 -54.0565
rfingers 7.12502
rthumb -1.30465 275.968
lclavicle 3.25013e-014 4.96962e-015
lhumerus 26.7759 -6.36126 44.8439
lradius 76.5457
lwrist 89.8393
lhand -39.9983 -19.3643
lfingers 7.12502
lthumb -12.9661 10.2128
rfemur -10.8363 13.6118 13.9362
rtibia 29.2201
rfoot -25.8954 -27.7574
rtoes -2.81895
lfemur -18.2917 -6.69821 -12.5297
ltibia 33.5234
lfoot -19.7058 12.8755
ltoes -11.0287
2225
root 8.15572 17.0008 -18.047 -3.42937 -73.7911 -350.876
lowerback 1.38463 0.112972 -4.27847
upperback -5.93127 -0.22961 -1.04723
thorax -6.95939 0.0494966 1.32183
lowerneck -6.99556 2.63994 -0.839643
upperneck 1.92263 3.55523 0.728651
head 1.75839 1.78047 0.498297
rclavicle -2.55935e-014 -2.38542e-015
rhumerus 23.4675 17.2795 -31.6175
rradius 85.8384
rwrist -84.8683
rhand -27.9836 -54.0699
rfingers 7.12502
rthumb -1.37008 275.955
lclavicle -2.55935e-014 -2.38542e-015
lhumerus 27.1942 -6.20868 44.5006
lradius 76.5108
lwrist 89.7857
lhand -39.5919 -19.8778
lfingers 7.12502
lthumb -12.5743 9.72375
rfemur -10.8553 13.7875 13.9614
rtibia 29.2095
rfoot -26.3467 -27.8413
rtoes -0.915715
lfemur -18.2928 -7.01844 -12.4811
ltibia 33.4396
lfoot -19.8597 12.9747
ltoes -10.8874
2226
root 8.15428 17.0027 -18.047 -3.31926 -73.7113 -351.011
lowerback 1.42285 0.153152 -3.64653
upperback -5.90933 -0.173722 -1.48693
thorax -6.95782 0.0261409 0.505606
lowerneck -6.98715 2.61665 -0.344053
upperneck 1.94325 3.4757 0.863986
head 1.77048 1.74863 0.454351
rclavicle -4.90253e-014 -1.98785e-015
rhumerus 23.4534 16.6448 -31.992
rradius 85.5487
rwrist -84.2558
rhand -27.6488 -53.7582
rfingers 7.12502
rthumb -1.04674 276.265
lclavicle -4.90253e-014 -1.98785e-015
lhumerus 27.9901 -6.38351 43.5047
lradius 76.5929
lwrist 89.7163
lhand -39.2901 -20.1146
lfingers 7.12502
lthumb -12.2834 9.50466
rfemur -10.7532 13.9631 14.0354
rtibia 29.1232
rfoot -26.1487 -28.2886
rtoes -1.74353
lfemur -18.2787 -7.25959 -12.4155
ltibia 33.4808
lfoot -20.3976 12.5868
ltoes -7.36541
2227
root 8.15067 16.9926 -18.0453 -3.64474 -73.6895 -350.77
lowerback 1.37754 0.168458 -2.70546
upperback -5.75902 -0.149477 -2.27972
thorax -6.77048 -0.0439137 -0.847924
lowerneck -6.88897 2.58058 0.332965
upperneck 1.69569 3.35292 1.28836
head 1.6775 1.70184 0.463758
rclavicle -1.83876e-015 -1.98785e-015
rhumerus 23.3583 15.8823 -32.8916
rradius 85.3611
rwrist -83.6689
rhand -27.5444 -53.5812
rfingers 7.12502
rthumb -0.945892 276.441
lclavicle -1.83876e-015 -1.98785e-015
lhumerus 28.9155 -6.41979 42.1006
lradius 76.7575
lwrist 89.6816
lhand -39.5917 -19.9307
lfingers 7.12502
lthumb -12.5742 9.67086
rfemur -10.7189 13.7908 14.0139
rtibia 28.9668
rfoot -23.9353 -29.7427
rtoes -10.2096
lfemur -18.2803 -7.21439 -12.522
ltibia 33.6341
lfoot -20.3921 12.5702
ltoes -7.20083
2228
root 8.14386 16.9734 -18.0396 -3.43681 -73.7017 -350.992
lowerback 1.1394 0.117758 -2.10963
upperback -5.57236 -0.191387 -2.62147
thorax -6.43464 -0.109022 -1.53181
lowerneck -7.04152 2.55041 0.238093
upperneck 1.49616 3.30101 1.78935
head 1.63084 1.68551 0.634782
rclavicle -1.33683e-014 -3.97569e-015
rhumerus 23.8922 15.3104 -32.9713
rradius 85.1109
rwrist -83.3872
rhand -27.6277 -53.7923
rfingers 7.12502
rthumb -1.02635 276.23
lclavicle -1.33683e-014 -3.97569e-015
lhumerus 29.5142 -6.07086 41.1833
lradius 76.957
lwrist 89.6841
lhand -40.3595 -19.1671
lfingers 7.12502
lthumb -13.3143 10.3875
rfemur -10.7569 13.3584 14.1293
rtibia 28.8184
rfoot -21.2483 -31.0726
rtoes -18.8712
lfemur -18.3723 -7.04594 -12.492
ltibia 33.8026
lfoot -19.9262 12.9929
ltoes -11.0829
